<?xml version="1.0" encoding="UTF-8" standalone="no"?>
<!DOCTYPE svg PUBLIC "-//W3C//DTD SVG 1.1//EN"
 "http://www.w3.org/Graphics/SVG/1.1/DTD/svg11.dtd">
<!-- Generated by graphviz version 5.0.0 (20220707.1540)
 -->
<!-- Title: dependencies Pages: 1 -->
<svg width="699pt" height="247pt"
 viewBox="0.00 0.00 699.00 246.80" xmlns="http://www.w3.org/2000/svg" xmlns:xlink="http://www.w3.org/1999/xlink">
<g id="graph0" class="graph" transform="scale(1 1) rotate(0) translate(4 242.8)">
<title>dependencies</title>
<polygon fill="white" stroke="transparent" points="-4,4 -4,-242.8 695,-242.8 695,4 -4,4"/>
<text text-anchor="middle" x="345.5" y="-8.2" font-family="sans-serif" font-size="14.00">dependencies</text>
<g id="clust1" class="cluster">
<title>cluster_AppModule</title>
<polygon fill="none" stroke="black" stroke-dasharray="1,5" points="8,-32.8 8,-230.8 683,-230.8 683,-32.8 8,-32.8"/>
</g>
<g id="clust9" class="cluster">
<title>cluster_AppModule_bootstrap</title>
<polygon fill="none" stroke="black" points="290,-170.8 290,-222.8 414,-222.8 414,-170.8 290,-170.8"/>
</g>
<g id="clust7" class="cluster">
<title>cluster_AppModule_imports</title>
<polygon fill="none" stroke="black" points="531,-40.8 531,-92.8 675,-92.8 675,-40.8 531,-40.8"/>
</g>
<g id="clust2" class="cluster">
<title>cluster_AppModule_declarations</title>
<polygon fill="none" stroke="black" points="16,-40.8 16,-92.8 523,-92.8 523,-40.8 16,-40.8"/>
</g>
<!-- AppComponent -->
<g id="node1" class="node">
<title>AppComponent</title>
<polygon fill="#ffffb3" stroke="black" points="514.94,-84.8 409.06,-84.8 409.06,-48.8 514.94,-48.8 514.94,-84.8"/>
<text text-anchor="middle" x="462" y="-62.6" font-family="Times,serif" font-size="14.00">AppComponent</text>
</g>
<!-- AppModule -->
<g id="node5" class="node">
<title>AppModule</title>
<polygon fill="#8dd3c7" stroke="black" points="393.66,-149.8 390.66,-153.8 369.66,-153.8 366.66,-149.8 310.34,-149.8 310.34,-113.8 393.66,-113.8 393.66,-149.8"/>
<text text-anchor="middle" x="352" y="-127.6" font-family="Times,serif" font-size="14.00">AppModule</text>
</g>
<!-- AppComponent&#45;&gt;AppModule -->
<g id="edge1" class="edge">
<title>AppComponent&#45;&gt;AppModule</title>
<path fill="none" stroke="black" d="M462,-84.82C462,-102.17 462,-125.8 462,-125.8 462,-125.8 403.9,-125.8 403.9,-125.8"/>
<polygon fill="black" stroke="black" points="403.9,-122.3 393.9,-125.8 403.9,-129.3 403.9,-122.3"/>
</g>
<!-- SearchPipe -->
<g id="node2" class="node">
<title>SearchPipe</title>
<polygon fill="#ffffb3" stroke="black" points="391.48,-84.8 312.52,-84.8 312.52,-48.8 391.48,-48.8 391.48,-84.8"/>
<text text-anchor="middle" x="352" y="-62.6" font-family="Times,serif" font-size="14.00">SearchPipe</text>
</g>
<!-- SearchPipe&#45;&gt;AppModule -->
<g id="edge2" class="edge">
<title>SearchPipe&#45;&gt;AppModule</title>
<path fill="none" stroke="black" d="M352,-84.91C352,-84.91 352,-103.79 352,-103.79"/>
<polygon fill="black" stroke="black" points="348.5,-103.79 352,-113.79 355.5,-103.79 348.5,-103.79"/>
</g>
<!-- TodoComponent -->
<g id="node3" class="node">
<title>TodoComponent</title>
<polygon fill="#ffffb3" stroke="black" points="294.38,-84.8 183.62,-84.8 183.62,-48.8 294.38,-48.8 294.38,-84.8"/>
<text text-anchor="middle" x="239" y="-62.6" font-family="Times,serif" font-size="14.00">TodoComponent</text>
</g>
<!-- TodoComponent&#45;&gt;AppModule -->
<g id="edge3" class="edge">
<title>TodoComponent&#45;&gt;AppModule</title>
<path fill="none" stroke="black" d="M239,-84.82C239,-102.17 239,-125.8 239,-125.8 239,-125.8 300.24,-125.8 300.24,-125.8"/>
<polygon fill="black" stroke="black" points="300.24,-129.3 310.24,-125.8 300.24,-122.3 300.24,-129.3"/>
</g>
<!-- TodoFrontComponent -->
<g id="node4" class="node">
<title>TodoFrontComponent</title>
<polygon fill="#ffffb3" stroke="black" points="165.72,-84.8 24.28,-84.8 24.28,-48.8 165.72,-48.8 165.72,-84.8"/>
<text text-anchor="middle" x="95" y="-62.6" font-family="Times,serif" font-size="14.00">TodoFrontComponent</text>
</g>
<!-- TodoFrontComponent&#45;&gt;AppModule -->
<g id="edge4" class="edge">
<title>TodoFrontComponent&#45;&gt;AppModule</title>
<path fill="none" stroke="black" d="M95,-85.08C95,-106.12 95,-137.8 95,-137.8 95,-137.8 300.14,-137.8 300.14,-137.8"/>
<polygon fill="black" stroke="black" points="300.14,-141.3 310.14,-137.8 300.14,-134.3 300.14,-141.3"/>
</g>
<!-- AppComponent  -->
<g id="node7" class="node">
<title>AppComponent </title>
<polygon fill="#80b1d3" stroke="black" points="406.44,-214.8 297.56,-214.8 297.56,-178.8 406.44,-178.8 406.44,-214.8"/>
<text text-anchor="middle" x="352" y="-192.6" font-family="Times,serif" font-size="14.00">AppComponent </text>
</g>
<!-- AppModule&#45;&gt;AppComponent  -->
<g id="edge6" class="edge">
<title>AppModule&#45;&gt;AppComponent </title>
<path fill="none" stroke="black" stroke-dasharray="1,5" d="M352,-149.91C352,-149.91 352,-168.79 352,-168.79"/>
<polygon fill="black" stroke="black" points="348.5,-168.79 352,-178.79 355.5,-168.79 348.5,-168.79"/>
</g>
<!-- AppRoutingModule -->
<g id="node6" class="node">
<title>AppRoutingModule</title>
<polygon fill="#8dd3c7" stroke="black" points="667.28,-84.8 664.28,-88.8 643.28,-88.8 640.28,-84.8 538.72,-84.8 538.72,-48.8 667.28,-48.8 667.28,-84.8"/>
<text text-anchor="middle" x="603" y="-62.6" font-family="Times,serif" font-size="14.00">AppRoutingModule</text>
</g>
<!-- AppRoutingModule&#45;&gt;AppModule -->
<g id="edge5" class="edge">
<title>AppRoutingModule&#45;&gt;AppModule</title>
<path fill="none" stroke="black" d="M603,-85.08C603,-106.12 603,-137.8 603,-137.8 603,-137.8 403.73,-137.8 403.73,-137.8"/>
<polygon fill="black" stroke="black" points="403.73,-134.3 393.73,-137.8 403.73,-141.3 403.73,-134.3"/>
</g>
</g>
</svg>
