<?xml version="1.0" encoding="UTF-8" standalone="no"?>
<!DOCTYPE svg PUBLIC "-//W3C//DTD SVG 1.1//EN"
 "http://www.w3.org/Graphics/SVG/1.1/DTD/svg11.dtd">
<!-- Generated by graphviz version 5.0.0 (20220707.1540)
 -->
<!-- Title: dependencies Pages: 1 -->
<svg width="699pt" height="247pt"
 viewBox="0.00 0.00 699.00 246.80" xmlns="http://www.w3.org/2000/svg" xmlns:xlink="http://www.w3.org/1999/xlink">
<g id="graph0" class="graph" transform="scale(1 1) rotate(0) translate(4 242.8)">
<title>dependencies</title>
<polygon fill="white" stroke="transparent" points="-4,4 -4,-242.8 695,-242.8 695,4 -4,4"/>
<text text-anchor="middle" x="345.5" y="-8.2" font-family="sans-serif" font-size="14.00">dependencies</text>
<g id="clust1" class="cluster">
<title>cluster_AppModule</title>
<polygon fill="none" stroke="black" stroke-dasharray="1,5" points="8,-32.8 8,-230.8 683,-230.8 683,-32.8 8,-32.8"/>
</g>
<g id="clust2" class="cluster">
<title>cluster_AppModule_declarations</title>
<polygon fill="none" stroke="black" points="168,-40.8 168,-92.8 675,-92.8 675,-40.8 168,-40.8"/>
</g>
<g id="clust7" class="cluster">
<title>cluster_AppModule_imports</title>
<polygon fill="none" stroke="black" points="16,-40.8 16,-92.8 160,-92.8 160,-40.8 16,-40.8"/>
</g>
<g id="clust9" class="cluster">
<title>cluster_AppModule_bootstrap</title>
<polygon fill="none" stroke="black" points="329,-170.8 329,-222.8 453,-222.8 453,-170.8 329,-170.8"/>
</g>
<!-- AppComponent -->
<g id="node1" class="node">
<title>AppComponent</title>
<polygon fill="#ffffb3" stroke="black" points="666.94,-84.8 561.06,-84.8 561.06,-48.8 666.94,-48.8 666.94,-84.8"/>
<text text-anchor="middle" x="614" y="-62.6" font-family="Times,serif" font-size="14.00">AppComponent</text>
</g>
<!-- AppModule -->
<g id="node5" class="node">
<title>AppModule</title>
<polygon fill="#8dd3c7" stroke="black" points="432.66,-149.8 429.66,-153.8 408.66,-153.8 405.66,-149.8 349.34,-149.8 349.34,-113.8 432.66,-113.8 432.66,-149.8"/>
<text text-anchor="middle" x="391" y="-127.6" font-family="Times,serif" font-size="14.00">AppModule</text>
</g>
<!-- AppComponent&#45;&gt;AppModule -->
<g id="edge1" class="edge">
<title>AppComponent&#45;&gt;AppModule</title>
<path fill="none" stroke="black" d="M614,-85.08C614,-106.12 614,-137.8 614,-137.8 614,-137.8 442.68,-137.8 442.68,-137.8"/>
<polygon fill="black" stroke="black" points="442.68,-134.3 432.68,-137.8 442.68,-141.3 442.68,-134.3"/>
</g>
<!-- SearchPipe -->
<g id="node2" class="node">
<title>SearchPipe</title>
<polygon fill="#ffffb3" stroke="black" points="543.48,-84.8 464.52,-84.8 464.52,-48.8 543.48,-48.8 543.48,-84.8"/>
<text text-anchor="middle" x="504" y="-62.6" font-family="Times,serif" font-size="14.00">SearchPipe</text>
</g>
<!-- SearchPipe&#45;&gt;AppModule -->
<g id="edge2" class="edge">
<title>SearchPipe&#45;&gt;AppModule</title>
<path fill="none" stroke="black" d="M504,-84.82C504,-102.17 504,-125.8 504,-125.8 504,-125.8 442.76,-125.8 442.76,-125.8"/>
<polygon fill="black" stroke="black" points="442.76,-122.3 432.76,-125.8 442.76,-129.3 442.76,-122.3"/>
</g>
<!-- TodoComponent -->
<g id="node3" class="node">
<title>TodoComponent</title>
<polygon fill="#ffffb3" stroke="black" points="446.38,-84.8 335.62,-84.8 335.62,-48.8 446.38,-48.8 446.38,-84.8"/>
<text text-anchor="middle" x="391" y="-62.6" font-family="Times,serif" font-size="14.00">TodoComponent</text>
</g>
<!-- TodoComponent&#45;&gt;AppModule -->
<g id="edge3" class="edge">
<title>TodoComponent&#45;&gt;AppModule</title>
<path fill="none" stroke="black" d="M391,-84.91C391,-84.91 391,-103.79 391,-103.79"/>
<polygon fill="black" stroke="black" points="387.5,-103.79 391,-113.79 394.5,-103.79 387.5,-103.79"/>
</g>
<!-- TodoFrontComponent -->
<g id="node4" class="node">
<title>TodoFrontComponent</title>
<polygon fill="#ffffb3" stroke="black" points="317.72,-84.8 176.28,-84.8 176.28,-48.8 317.72,-48.8 317.72,-84.8"/>
<text text-anchor="middle" x="247" y="-62.6" font-family="Times,serif" font-size="14.00">TodoFrontComponent</text>
</g>
<!-- TodoFrontComponent&#45;&gt;AppModule -->
<g id="edge4" class="edge">
<title>TodoFrontComponent&#45;&gt;AppModule</title>
<path fill="none" stroke="black" d="M247,-84.82C247,-102.17 247,-125.8 247,-125.8 247,-125.8 338.96,-125.8 338.96,-125.8"/>
<polygon fill="black" stroke="black" points="338.96,-129.3 348.96,-125.8 338.96,-122.3 338.96,-129.3"/>
</g>
<!-- AppComponent  -->
<g id="node7" class="node">
<title>AppComponent </title>
<polygon fill="#80b1d3" stroke="black" points="445.44,-214.8 336.56,-214.8 336.56,-178.8 445.44,-178.8 445.44,-214.8"/>
<text text-anchor="middle" x="391" y="-192.6" font-family="Times,serif" font-size="14.00">AppComponent </text>
</g>
<!-- AppModule&#45;&gt;AppComponent  -->
<g id="edge6" class="edge">
<title>AppModule&#45;&gt;AppComponent </title>
<path fill="none" stroke="black" stroke-dasharray="1,5" d="M391,-149.91C391,-149.91 391,-168.79 391,-168.79"/>
<polygon fill="black" stroke="black" points="387.5,-168.79 391,-178.79 394.5,-168.79 387.5,-168.79"/>
</g>
<!-- AppRoutingModule -->
<g id="node6" class="node">
<title>AppRoutingModule</title>
<polygon fill="#8dd3c7" stroke="black" points="152.28,-84.8 149.28,-88.8 128.28,-88.8 125.28,-84.8 23.72,-84.8 23.72,-48.8 152.28,-48.8 152.28,-84.8"/>
<text text-anchor="middle" x="88" y="-62.6" font-family="Times,serif" font-size="14.00">AppRoutingModule</text>
</g>
<!-- AppRoutingModule&#45;&gt;AppModule -->
<g id="edge5" class="edge">
<title>AppRoutingModule&#45;&gt;AppModule</title>
<path fill="none" stroke="black" d="M88,-85.08C88,-106.12 88,-137.8 88,-137.8 88,-137.8 339.19,-137.8 339.19,-137.8"/>
<polygon fill="black" stroke="black" points="339.19,-141.3 349.19,-137.8 339.19,-134.3 339.19,-141.3"/>
</g>
</g>
</svg>
